<?xml version="1.0" encoding="UTF-8" standalone="no"?>
<!DOCTYPE svg PUBLIC "-//W3C//DTD SVG 1.1//EN" "http://www.w3.org/Graphics/SVG/1.1/DTD/svg11.dtd">
<svg width="1280px" height="1280px" version="1.1" xmlns="http://www.w3.org/2000/svg" xml:space="preserve"
     style="fill-rule:evenodd;clip-rule:evenodd;stroke-linejoin:round;stroke-miterlimit:2;">
    <path d="M419.459,221.604C426.534,224.654 427.258,225.349 430.587,227.218C461.294,244.452 492.556,269.164 518.8,296.538C558.246,337.685 586.353,384.846 584.188,421.667C577.826,529.889 475.035,598.13 453.241,707.007C448.308,731.651 439.497,841.037 471.574,820.232C505.503,798.225 634.996,614.439 656.813,574.969C708.989,480.574 764.925,342.161 775.307,318.976C811.328,349.116 897.731,389.936 890.626,407.987C868.745,463.58 840.83,518.618 825.932,564.509C807.176,622.281 780.912,752.225 796.497,806.764C815.441,803.095 840.385,771.495 859.046,751.309C873.455,735.722 891.317,703.536 907.429,695.649L978.33,769.089C959.035,799.016 925.057,844.978 893.785,871.051C862.237,897.355 795.21,957.94 777.428,944.863C737.706,915.652 715.016,888.669 686.707,862.088L693.783,756.175C646.008,843.297 555.517,942.007 494.641,967.547C440.506,979.249 406.444,952.178 376.879,923.338C343.995,891.26 314.366,840.085 314.22,811.926C314.067,782.632 313.259,775.184 314.98,753.081C317.414,721.828 319.903,709.385 333.466,657.43C355.69,572.298 415.636,514.56 441.438,452.958C474.578,373.837 452.426,353.341 435.021,336.25C419.766,321.271 393.913,296.469 328.181,320.977C264.095,344.871 190,513.81 190,640C190,888.362 391.638,1090 640,1090C888.362,1090 1090,888.362 1090,640C1090,391.638 888.362,190 640,190C609.244,190 588.634,189.465 559.605,195.356C542.155,182.824 539.467,180.698 518.25,165.034C508.293,157.684 499.204,153.848 476.72,140.547C469.731,136.413 455.262,128.153 446.484,124.047C431.995,117.269 422.843,113.836 408.874,108.245C391.537,101.306 372.834,98.922 370.876,97.483C446.448,63.117 551.63,40 640,40C971.149,40 1240,308.851 1240,640C1240,971.149 971.149,1240 640,1240C308.851,1240 40,971.149 40,640C40,501.675 86.91,374.221 165.675,272.69C169.757,267.428 173.925,262.236 178.176,257.115C181.153,253.53 184.17,249.98 187.228,246.466C203.867,228.123 228.843,216.034 246.027,208.221C259.725,201.994 276.892,201.118 290.334,199.588C302.373,198.217 314.565,199.234 326.68,199.037C352.258,198.622 393.734,209.737 410.149,216.976"/>
    <path d="M419.459,221.604C426.534,224.654 427.258,225.349 430.587,227.218C461.294,244.452 492.556,269.164 518.8,296.538C558.246,337.685 586.353,384.846 584.188,421.667C577.826,529.889 475.035,598.13 453.241,707.007C448.308,731.651 439.497,841.037 471.574,820.232C505.503,798.225 634.996,614.439 656.813,574.969C708.989,480.574 764.925,342.161 775.307,318.976C811.328,349.116 897.731,389.936 890.626,407.987C868.745,463.58 840.83,518.618 825.932,564.509C807.176,622.281 780.912,752.225 796.497,806.764C815.441,803.095 840.385,771.495 859.046,751.309C873.455,735.722 891.317,703.536 907.429,695.649L978.33,769.089C959.035,799.016 925.057,844.978 893.785,871.051C862.237,897.355 795.21,957.94 777.428,944.863C737.706,915.652 715.016,888.669 686.707,862.088L693.783,756.175C646.008,843.297 555.517,942.007 494.641,967.547C440.506,979.249 406.444,952.178 376.879,923.338C343.995,891.26 314.366,840.085 314.22,811.926C314.067,782.632 313.259,775.184 314.98,753.081C317.414,721.828 319.903,709.385 333.466,657.43C355.69,572.298 415.636,514.56 441.438,452.958C474.578,373.837 452.426,353.341 435.021,336.25C419.766,321.271 393.913,296.469 328.181,320.977C264.095,344.871 190,513.81 190,640C190,888.362 391.638,1090 640,1090C888.362,1090 1090,888.362 1090,640C1090,391.638 888.362,190 640,190C609.244,190 588.634,189.465 559.605,195.356C542.155,182.824 539.467,180.698 518.25,165.034C508.293,157.684 499.204,153.848 476.72,140.547C469.731,136.413 455.262,128.153 446.484,124.047C431.995,117.269 422.843,113.836 408.874,108.245C391.537,101.306 372.834,98.922 370.876,97.483C446.448,63.117 551.63,40 640,40C971.149,40 1240,308.851 1240,640C1240,971.149 971.149,1240 640,1240C308.851,1240 40,971.149 40,640C40,501.675 86.91,374.221 165.675,272.69C169.757,267.428 173.925,262.236 178.176,257.115C181.153,253.53 184.17,249.98 187.228,246.466C203.867,228.123 228.843,216.034 246.027,208.221C259.725,201.994 276.892,201.118 290.334,199.588C302.373,198.217 314.565,199.234 326.68,199.037C352.258,198.622 393.734,209.737 410.149,216.976" style="fill:url(#_Linear1);"/>
    <defs>
        <linearGradient id="_Linear1" x1="0" y1="0" x2="1" y2="0" gradientUnits="userSpaceOnUse" gradientTransform="matrix(1200,0,0,1200,40,640)"><stop offset="0" style="stop-color:#1100a3;stop-opacity:1"/><stop offset="0.43" style="stop-color:#5a0d71;stop-opacity:1"/><stop offset="1" style="stop-color:#ff2900;stop-opacity:1"/></linearGradient>
    </defs>
</svg>
